<mxfile host="Electron" agent="Mozilla/5.0 (Windows NT 10.0; Win64; x64) AppleWebKit/537.36 (KHTML, like Gecko) draw.io/28.1.2 Chrome/138.0.7204.243 Electron/37.4.0 Safari/537.36" version="28.1.2">
  <diagram name="Страница — 1" id="5OYgkvIwSq2Gx1lQh9lZ">
    <mxGraphModel dx="1429" dy="953" grid="1" gridSize="10" guides="1" tooltips="1" connect="1" arrows="1" fold="1" page="1" pageScale="1" pageWidth="827" pageHeight="1169" math="0" shadow="0">
      <root>
        <mxCell id="0" />
        <mxCell id="1" parent="0" />
        <mxCell id="LCghE6-hminLdU0i90bZ-3" value="Клиент" style="whiteSpace=wrap;html=1;align=center;" parent="1" vertex="1">
          <mxGeometry x="241" y="409" width="100" height="40" as="geometry" />
        </mxCell>
        <mxCell id="LCghE6-hminLdU0i90bZ-7" value="Дата рождения" style="ellipse;whiteSpace=wrap;html=1;align=center;" parent="1" vertex="1">
          <mxGeometry x="364" y="234" width="100" height="40" as="geometry" />
        </mxCell>
        <mxCell id="LCghE6-hminLdU0i90bZ-8" value="" style="endArrow=none;html=1;rounded=0;entryX=0.5;entryY=1;entryDx=0;entryDy=0;exitX=0.5;exitY=0;exitDx=0;exitDy=0;" parent="1" source="LCghE6-hminLdU0i90bZ-3" target="LCghE6-hminLdU0i90bZ-7" edge="1">
          <mxGeometry relative="1" as="geometry">
            <mxPoint x="191" y="94" as="sourcePoint" />
            <mxPoint x="351" y="94" as="targetPoint" />
          </mxGeometry>
        </mxCell>
        <mxCell id="LCghE6-hminLdU0i90bZ-9" value="Адрес" style="ellipse;whiteSpace=wrap;html=1;align=center;" parent="1" vertex="1">
          <mxGeometry x="400" y="354" width="100" height="40" as="geometry" />
        </mxCell>
        <mxCell id="LCghE6-hminLdU0i90bZ-10" value="" style="endArrow=none;html=1;rounded=0;entryX=0;entryY=1;entryDx=0;entryDy=0;exitX=0.5;exitY=0;exitDx=0;exitDy=0;" parent="1" source="LCghE6-hminLdU0i90bZ-3" target="LCghE6-hminLdU0i90bZ-9" edge="1">
          <mxGeometry relative="1" as="geometry">
            <mxPoint x="261" y="34" as="sourcePoint" />
            <mxPoint x="371" y="54" as="targetPoint" />
          </mxGeometry>
        </mxCell>
        <mxCell id="LCghE6-hminLdU0i90bZ-11" value="Телефон" style="ellipse;whiteSpace=wrap;html=1;align=center;" parent="1" vertex="1">
          <mxGeometry x="400" y="294" width="100" height="40" as="geometry" />
        </mxCell>
        <mxCell id="LCghE6-hminLdU0i90bZ-12" value="" style="endArrow=none;html=1;rounded=0;entryX=0.5;entryY=1;entryDx=0;entryDy=0;exitX=0.5;exitY=0;exitDx=0;exitDy=0;" parent="1" source="LCghE6-hminLdU0i90bZ-3" target="LCghE6-hminLdU0i90bZ-11" edge="1">
          <mxGeometry relative="1" as="geometry">
            <mxPoint x="211" y="54" as="sourcePoint" />
            <mxPoint x="371" y="54" as="targetPoint" />
          </mxGeometry>
        </mxCell>
        <mxCell id="LCghE6-hminLdU0i90bZ-13" value="Пол" style="ellipse;whiteSpace=wrap;html=1;align=center;" parent="1" vertex="1">
          <mxGeometry x="50" y="354" width="100" height="40" as="geometry" />
        </mxCell>
        <mxCell id="LCghE6-hminLdU0i90bZ-14" value="" style="endArrow=none;html=1;rounded=0;exitX=1;exitY=0.5;exitDx=0;exitDy=0;entryX=0.5;entryY=0;entryDx=0;entryDy=0;" parent="1" source="LCghE6-hminLdU0i90bZ-13" target="LCghE6-hminLdU0i90bZ-3" edge="1">
          <mxGeometry relative="1" as="geometry">
            <mxPoint x="1" y="94" as="sourcePoint" />
            <mxPoint x="161" y="94" as="targetPoint" />
          </mxGeometry>
        </mxCell>
        <mxCell id="LCghE6-hminLdU0i90bZ-16" value="" style="endArrow=none;html=1;rounded=0;exitX=1;exitY=0.5;exitDx=0;exitDy=0;entryX=0;entryY=0.5;entryDx=0;entryDy=0;" parent="1" source="N3sGzedyJR3lp-CHt0vu-9" target="LCghE6-hminLdU0i90bZ-3" edge="1">
          <mxGeometry relative="1" as="geometry">
            <mxPoint x="161" y="429" as="sourcePoint" />
            <mxPoint x="241" y="104" as="targetPoint" />
          </mxGeometry>
        </mxCell>
        <mxCell id="LCghE6-hminLdU0i90bZ-20" value="Предприятие" style="whiteSpace=wrap;html=1;align=center;" parent="1" vertex="1">
          <mxGeometry x="481" y="644" width="100" height="40" as="geometry" />
        </mxCell>
        <mxCell id="LCghE6-hminLdU0i90bZ-21" value="Название" style="ellipse;whiteSpace=wrap;html=1;align=center;" parent="1" vertex="1">
          <mxGeometry x="551" y="564" width="100" height="40" as="geometry" />
        </mxCell>
        <mxCell id="LCghE6-hminLdU0i90bZ-22" value="" style="endArrow=none;html=1;rounded=0;entryX=0.5;entryY=1;entryDx=0;entryDy=0;exitX=0.5;exitY=0;exitDx=0;exitDy=0;" parent="1" source="LCghE6-hminLdU0i90bZ-20" target="LCghE6-hminLdU0i90bZ-21" edge="1">
          <mxGeometry relative="1" as="geometry">
            <mxPoint x="371" y="424" as="sourcePoint" />
            <mxPoint x="531" y="424" as="targetPoint" />
          </mxGeometry>
        </mxCell>
        <mxCell id="LCghE6-hminLdU0i90bZ-26" value="Отдел Кадров" style="shape=ext;margin=3;double=1;whiteSpace=wrap;html=1;align=center;" parent="1" vertex="1">
          <mxGeometry x="481" y="814" width="100" height="40" as="geometry" />
        </mxCell>
        <mxCell id="LCghE6-hminLdU0i90bZ-27" value="Вакансия" style="shape=ext;margin=3;double=1;whiteSpace=wrap;html=1;align=center;" parent="1" vertex="1">
          <mxGeometry x="220" y="670" width="100" height="40" as="geometry" />
        </mxCell>
        <mxCell id="LCghE6-hminLdU0i90bZ-28" value="Телефон" style="ellipse;whiteSpace=wrap;html=1;align=center;" parent="1" vertex="1">
          <mxGeometry x="481" y="894" width="100" height="40" as="geometry" />
        </mxCell>
        <mxCell id="LCghE6-hminLdU0i90bZ-29" value="" style="endArrow=none;html=1;rounded=0;entryX=0.5;entryY=0;entryDx=0;entryDy=0;exitX=0.5;exitY=1;exitDx=0;exitDy=0;" parent="1" source="LCghE6-hminLdU0i90bZ-26" target="LCghE6-hminLdU0i90bZ-28" edge="1">
          <mxGeometry relative="1" as="geometry">
            <mxPoint x="371" y="424" as="sourcePoint" />
            <mxPoint x="531" y="424" as="targetPoint" />
          </mxGeometry>
        </mxCell>
        <mxCell id="LCghE6-hminLdU0i90bZ-34" value="" style="endArrow=none;html=1;rounded=0;exitX=0.5;exitY=1;exitDx=0;exitDy=0;entryX=0.5;entryY=0;entryDx=0;entryDy=0;" parent="1" source="LCghE6-hminLdU0i90bZ-117" target="LCghE6-hminLdU0i90bZ-20" edge="1">
          <mxGeometry relative="1" as="geometry">
            <mxPoint x="461" y="604" as="sourcePoint" />
            <mxPoint x="531" y="424" as="targetPoint" />
          </mxGeometry>
        </mxCell>
        <mxCell id="LCghE6-hminLdU0i90bZ-36" value="" style="endArrow=none;html=1;rounded=0;entryX=0.5;entryY=0;entryDx=0;entryDy=0;exitX=0.5;exitY=1;exitDx=0;exitDy=0;" parent="1" source="LCghE6-hminLdU0i90bZ-26" target="LCghE6-hminLdU0i90bZ-116" edge="1">
          <mxGeometry relative="1" as="geometry">
            <mxPoint x="371" y="424" as="sourcePoint" />
            <mxPoint x="381" y="884" as="targetPoint" />
          </mxGeometry>
        </mxCell>
        <mxCell id="LCghE6-hminLdU0i90bZ-39" value="Имеет" style="shape=rhombus;perimeter=rhombusPerimeter;whiteSpace=wrap;html=1;align=center;" parent="1" vertex="1">
          <mxGeometry x="471" y="724" width="120" height="60" as="geometry" />
        </mxCell>
        <mxCell id="LCghE6-hminLdU0i90bZ-40" value="" style="endArrow=none;html=1;rounded=0;exitX=0.5;exitY=0;exitDx=0;exitDy=0;entryX=0.5;entryY=1;entryDx=0;entryDy=0;" parent="1" source="LCghE6-hminLdU0i90bZ-39" target="LCghE6-hminLdU0i90bZ-20" edge="1">
          <mxGeometry relative="1" as="geometry">
            <mxPoint x="371" y="424" as="sourcePoint" />
            <mxPoint x="451" y="474" as="targetPoint" />
          </mxGeometry>
        </mxCell>
        <mxCell id="LCghE6-hminLdU0i90bZ-41" value="1" style="resizable=0;html=1;whiteSpace=wrap;align=right;verticalAlign=bottom;" parent="LCghE6-hminLdU0i90bZ-40" connectable="0" vertex="1">
          <mxGeometry x="1" relative="1" as="geometry">
            <mxPoint y="20" as="offset" />
          </mxGeometry>
        </mxCell>
        <mxCell id="LCghE6-hminLdU0i90bZ-42" value="" style="endArrow=none;html=1;rounded=0;entryX=0.5;entryY=0;entryDx=0;entryDy=0;exitX=0.5;exitY=1;exitDx=0;exitDy=0;" parent="1" source="LCghE6-hminLdU0i90bZ-39" target="LCghE6-hminLdU0i90bZ-26" edge="1">
          <mxGeometry relative="1" as="geometry">
            <mxPoint x="371" y="424" as="sourcePoint" />
            <mxPoint x="531" y="424" as="targetPoint" />
          </mxGeometry>
        </mxCell>
        <mxCell id="LCghE6-hminLdU0i90bZ-43" value="N" style="resizable=0;html=1;whiteSpace=wrap;align=right;verticalAlign=bottom;" parent="LCghE6-hminLdU0i90bZ-42" connectable="0" vertex="1">
          <mxGeometry x="1" relative="1" as="geometry">
            <mxPoint as="offset" />
          </mxGeometry>
        </mxCell>
        <mxCell id="LCghE6-hminLdU0i90bZ-71" value="M" style="edgeLabel;html=1;align=center;verticalAlign=middle;resizable=0;points=[];" parent="LCghE6-hminLdU0i90bZ-42" vertex="1" connectable="0">
          <mxGeometry x="0.3481" y="-6" relative="1" as="geometry">
            <mxPoint as="offset" />
          </mxGeometry>
        </mxCell>
        <mxCell id="LCghE6-hminLdU0i90bZ-50" value="Формирует" style="shape=rhombus;perimeter=rhombusPerimeter;whiteSpace=wrap;html=1;align=center;" parent="1" vertex="1">
          <mxGeometry x="311" y="724" width="120" height="60" as="geometry" />
        </mxCell>
        <mxCell id="LCghE6-hminLdU0i90bZ-53" value="" style="endArrow=none;html=1;rounded=0;exitX=1;exitY=1;exitDx=0;exitDy=0;entryX=0;entryY=0.5;entryDx=0;entryDy=0;" parent="1" source="LCghE6-hminLdU0i90bZ-50" target="LCghE6-hminLdU0i90bZ-26" edge="1">
          <mxGeometry relative="1" as="geometry">
            <mxPoint x="311" y="494" as="sourcePoint" />
            <mxPoint x="471" y="494" as="targetPoint" />
          </mxGeometry>
        </mxCell>
        <mxCell id="LCghE6-hminLdU0i90bZ-54" value="1" style="resizable=0;html=1;whiteSpace=wrap;align=right;verticalAlign=bottom;" parent="LCghE6-hminLdU0i90bZ-53" connectable="0" vertex="1">
          <mxGeometry x="1" relative="1" as="geometry" />
        </mxCell>
        <mxCell id="LCghE6-hminLdU0i90bZ-57" value="" style="endArrow=none;html=1;rounded=0;dashed=1;dashPattern=1 2;entryX=0.5;entryY=1;entryDx=0;entryDy=0;exitX=0;exitY=0;exitDx=0;exitDy=0;" parent="1" source="LCghE6-hminLdU0i90bZ-50" target="LCghE6-hminLdU0i90bZ-27" edge="1">
          <mxGeometry relative="1" as="geometry">
            <mxPoint x="311" y="494" as="sourcePoint" />
            <mxPoint x="471" y="494" as="targetPoint" />
          </mxGeometry>
        </mxCell>
        <mxCell id="LCghE6-hminLdU0i90bZ-58" value="M" style="resizable=0;html=1;whiteSpace=wrap;align=right;verticalAlign=bottom;" parent="LCghE6-hminLdU0i90bZ-57" connectable="0" vertex="1">
          <mxGeometry x="1" relative="1" as="geometry">
            <mxPoint y="20" as="offset" />
          </mxGeometry>
        </mxCell>
        <mxCell id="LCghE6-hminLdU0i90bZ-59" value="ФИО начальника" style="ellipse;whiteSpace=wrap;html=1;align=center;" parent="1" vertex="1">
          <mxGeometry x="604.5" y="894" width="100" height="40" as="geometry" />
        </mxCell>
        <mxCell id="LCghE6-hminLdU0i90bZ-60" value="" style="endArrow=none;html=1;rounded=0;entryX=0.5;entryY=0;entryDx=0;entryDy=0;exitX=0.5;exitY=1;exitDx=0;exitDy=0;" parent="1" source="LCghE6-hminLdU0i90bZ-26" target="LCghE6-hminLdU0i90bZ-59" edge="1">
          <mxGeometry relative="1" as="geometry">
            <mxPoint x="451" y="684" as="sourcePoint" />
            <mxPoint x="471" y="624" as="targetPoint" />
          </mxGeometry>
        </mxCell>
        <mxCell id="LCghE6-hminLdU0i90bZ-61" value="Подходит" style="shape=rhombus;perimeter=rhombusPerimeter;whiteSpace=wrap;html=1;align=center;" parent="1" vertex="1">
          <mxGeometry x="251" y="504" width="120" height="60" as="geometry" />
        </mxCell>
        <mxCell id="LCghE6-hminLdU0i90bZ-62" value="" style="endArrow=none;html=1;rounded=0;entryX=0.5;entryY=1;entryDx=0;entryDy=0;exitX=0.5;exitY=0;exitDx=0;exitDy=0;dashed=1;" parent="1" source="LCghE6-hminLdU0i90bZ-61" target="LCghE6-hminLdU0i90bZ-3" edge="1">
          <mxGeometry relative="1" as="geometry">
            <mxPoint x="331" y="574" as="sourcePoint" />
            <mxPoint x="491" y="574" as="targetPoint" />
          </mxGeometry>
        </mxCell>
        <mxCell id="LCghE6-hminLdU0i90bZ-63" value="M" style="resizable=0;html=1;whiteSpace=wrap;align=right;verticalAlign=bottom;" parent="LCghE6-hminLdU0i90bZ-62" connectable="0" vertex="1">
          <mxGeometry x="1" relative="1" as="geometry">
            <mxPoint y="25" as="offset" />
          </mxGeometry>
        </mxCell>
        <mxCell id="LCghE6-hminLdU0i90bZ-69" value="" style="endArrow=none;html=1;rounded=0;exitX=0.5;exitY=1;exitDx=0;exitDy=0;entryX=0.5;entryY=0;entryDx=0;entryDy=0;dashed=1;" parent="1" source="LCghE6-hminLdU0i90bZ-61" target="LCghE6-hminLdU0i90bZ-27" edge="1">
          <mxGeometry relative="1" as="geometry">
            <mxPoint x="321" y="574" as="sourcePoint" />
            <mxPoint x="481" y="574" as="targetPoint" />
          </mxGeometry>
        </mxCell>
        <mxCell id="LCghE6-hminLdU0i90bZ-70" value="N" style="resizable=0;html=1;whiteSpace=wrap;align=right;verticalAlign=bottom;" parent="LCghE6-hminLdU0i90bZ-69" connectable="0" vertex="1">
          <mxGeometry x="1" relative="1" as="geometry">
            <mxPoint x="-10" y="-10" as="offset" />
          </mxGeometry>
        </mxCell>
        <mxCell id="LCghE6-hminLdU0i90bZ-80" value="Должность" style="ellipse;whiteSpace=wrap;html=1;align=center;" parent="1" vertex="1">
          <mxGeometry x="511" y="334" width="100" height="40" as="geometry" />
        </mxCell>
        <mxCell id="LCghE6-hminLdU0i90bZ-81" value="" style="endArrow=none;html=1;rounded=0;entryX=0.5;entryY=1;entryDx=0;entryDy=0;exitX=0.5;exitY=0;exitDx=0;exitDy=0;" parent="1" source="FgDvqK0AXRK7S9zn8mNW-1" target="LCghE6-hminLdU0i90bZ-80" edge="1">
          <mxGeometry relative="1" as="geometry">
            <mxPoint x="660" y="419" as="sourcePoint" />
            <mxPoint x="668" y="444" as="targetPoint" />
          </mxGeometry>
        </mxCell>
        <mxCell id="LCghE6-hminLdU0i90bZ-82" value="&lt;u&gt;Первый рабочий день&lt;/u&gt;" style="ellipse;whiteSpace=wrap;html=1;align=center;" parent="1" vertex="1">
          <mxGeometry x="594.5" y="294" width="120" height="40" as="geometry" />
        </mxCell>
        <mxCell id="LCghE6-hminLdU0i90bZ-83" value="" style="endArrow=none;html=1;rounded=0;entryX=0.5;entryY=1;entryDx=0;entryDy=0;exitX=0.5;exitY=0;exitDx=0;exitDy=0;" parent="1" source="FgDvqK0AXRK7S9zn8mNW-1" target="LCghE6-hminLdU0i90bZ-82" edge="1">
          <mxGeometry relative="1" as="geometry">
            <mxPoint x="658" y="419" as="sourcePoint" />
            <mxPoint x="668" y="444" as="targetPoint" />
          </mxGeometry>
        </mxCell>
        <mxCell id="LCghE6-hminLdU0i90bZ-85" value="" style="endArrow=none;html=1;rounded=0;entryX=0.5;entryY=1;entryDx=0;entryDy=0;exitX=0.5;exitY=0;exitDx=0;exitDy=0;" parent="1" source="FgDvqK0AXRK7S9zn8mNW-1" target="N3sGzedyJR3lp-CHt0vu-27" edge="1">
          <mxGeometry relative="1" as="geometry">
            <mxPoint x="658" y="419" as="sourcePoint" />
            <mxPoint x="747.9999999999998" y="374" as="targetPoint" />
          </mxGeometry>
        </mxCell>
        <mxCell id="LCghE6-hminLdU0i90bZ-86" value="" style="endArrow=none;html=1;rounded=0;entryX=0;entryY=0.5;entryDx=0;entryDy=0;exitX=1;exitY=0.5;exitDx=0;exitDy=0;" parent="1" source="LCghE6-hminLdU0i90bZ-87" target="LCghE6-hminLdU0i90bZ-27" edge="1">
          <mxGeometry relative="1" as="geometry">
            <mxPoint x="268" y="714" as="sourcePoint" />
            <mxPoint x="301" y="663.23" as="targetPoint" />
          </mxGeometry>
        </mxCell>
        <mxCell id="LCghE6-hminLdU0i90bZ-87" value="ЗП" style="ellipse;whiteSpace=wrap;html=1;align=center;" parent="1" vertex="1">
          <mxGeometry x="28" y="694" width="100" height="40" as="geometry" />
        </mxCell>
        <mxCell id="LCghE6-hminLdU0i90bZ-98" value="Должность" style="ellipse;whiteSpace=wrap;html=1;align=center;" parent="1" vertex="1">
          <mxGeometry x="50" y="644" width="100" height="40" as="geometry" />
        </mxCell>
        <mxCell id="LCghE6-hminLdU0i90bZ-99" value="" style="endArrow=none;html=1;rounded=0;exitX=1;exitY=0.5;exitDx=0;exitDy=0;entryX=0;entryY=0.5;entryDx=0;entryDy=0;" parent="1" source="LCghE6-hminLdU0i90bZ-98" target="LCghE6-hminLdU0i90bZ-27" edge="1">
          <mxGeometry relative="1" as="geometry">
            <mxPoint x="168" y="584" as="sourcePoint" />
            <mxPoint x="328" y="584" as="targetPoint" />
          </mxGeometry>
        </mxCell>
        <mxCell id="LCghE6-hminLdU0i90bZ-100" value="Пол" style="ellipse;whiteSpace=wrap;html=1;align=center;" parent="1" vertex="1">
          <mxGeometry x="78" y="599" width="100" height="40" as="geometry" />
        </mxCell>
        <mxCell id="LCghE6-hminLdU0i90bZ-101" value="" style="endArrow=none;html=1;rounded=0;exitX=1;exitY=1;exitDx=0;exitDy=0;entryX=0;entryY=0.5;entryDx=0;entryDy=0;" parent="1" source="LCghE6-hminLdU0i90bZ-100" target="LCghE6-hminLdU0i90bZ-27" edge="1">
          <mxGeometry relative="1" as="geometry">
            <mxPoint x="158" y="624" as="sourcePoint" />
            <mxPoint x="318" y="624" as="targetPoint" />
          </mxGeometry>
        </mxCell>
        <mxCell id="LCghE6-hminLdU0i90bZ-103" value="" style="endArrow=none;html=1;rounded=0;exitX=0.5;exitY=1;exitDx=0;exitDy=0;entryX=0.25;entryY=0;entryDx=0;entryDy=0;" parent="1" source="N3sGzedyJR3lp-CHt0vu-14" target="LCghE6-hminLdU0i90bZ-27" edge="1">
          <mxGeometry relative="1" as="geometry">
            <mxPoint x="208" y="599" as="sourcePoint" />
            <mxPoint x="278" y="604" as="targetPoint" />
          </mxGeometry>
        </mxCell>
        <mxCell id="LCghE6-hminLdU0i90bZ-106" value="" style="endArrow=none;html=1;rounded=0;entryX=0;entryY=0.5;entryDx=0;entryDy=0;exitX=1;exitY=0;exitDx=0;exitDy=0;" parent="1" source="N3sGzedyJR3lp-CHt0vu-15" target="LCghE6-hminLdU0i90bZ-27" edge="1">
          <mxGeometry relative="1" as="geometry">
            <mxPoint x="146.08021264976787" y="749.7486636110318" as="sourcePoint" />
            <mxPoint x="308" y="674" as="targetPoint" />
          </mxGeometry>
        </mxCell>
        <mxCell id="LCghE6-hminLdU0i90bZ-109" value="" style="endArrow=none;html=1;rounded=0;entryX=0;entryY=0.5;entryDx=0;entryDy=0;exitX=1;exitY=0;exitDx=0;exitDy=0;" parent="1" source="N3sGzedyJR3lp-CHt0vu-16" target="LCghE6-hminLdU0i90bZ-27" edge="1">
          <mxGeometry relative="1" as="geometry">
            <mxPoint x="173.08021264976787" y="799.7486636110318" as="sourcePoint" />
            <mxPoint x="278" y="744" as="targetPoint" />
          </mxGeometry>
        </mxCell>
        <mxCell id="LCghE6-hminLdU0i90bZ-110" value="График" style="ellipse;whiteSpace=wrap;html=1;align=center;" parent="1" vertex="1">
          <mxGeometry x="40" y="870" width="100" height="40" as="geometry" />
        </mxCell>
        <mxCell id="LCghE6-hminLdU0i90bZ-111" value="" style="endArrow=none;html=1;rounded=0;entryX=0.25;entryY=1;entryDx=0;entryDy=0;exitX=0.5;exitY=0;exitDx=0;exitDy=0;" parent="1" source="LCghE6-hminLdU0i90bZ-110" target="LCghE6-hminLdU0i90bZ-27" edge="1">
          <mxGeometry relative="1" as="geometry">
            <mxPoint x="118" y="744" as="sourcePoint" />
            <mxPoint x="278" y="744" as="targetPoint" />
          </mxGeometry>
        </mxCell>
        <mxCell id="LCghE6-hminLdU0i90bZ-113" value="" style="endArrow=none;html=1;rounded=0;entryX=0.25;entryY=1;entryDx=0;entryDy=0;exitX=0.5;exitY=0;exitDx=0;exitDy=0;" parent="1" source="N3sGzedyJR3lp-CHt0vu-18" target="LCghE6-hminLdU0i90bZ-27" edge="1">
          <mxGeometry relative="1" as="geometry">
            <mxPoint x="261" y="910" as="sourcePoint" />
            <mxPoint x="278" y="744" as="targetPoint" />
          </mxGeometry>
        </mxCell>
        <mxCell id="LCghE6-hminLdU0i90bZ-114" value="Id" style="ellipse;whiteSpace=wrap;html=1;align=center;fontStyle=4;" parent="1" vertex="1">
          <mxGeometry x="320" y="599" width="100" height="40" as="geometry" />
        </mxCell>
        <mxCell id="LCghE6-hminLdU0i90bZ-115" value="" style="endArrow=none;html=1;rounded=0;exitX=1;exitY=0;exitDx=0;exitDy=0;entryX=0;entryY=1;entryDx=0;entryDy=0;" parent="1" source="LCghE6-hminLdU0i90bZ-27" target="LCghE6-hminLdU0i90bZ-114" edge="1">
          <mxGeometry relative="1" as="geometry">
            <mxPoint x="320" y="640" as="sourcePoint" />
            <mxPoint x="480" y="640" as="targetPoint" />
          </mxGeometry>
        </mxCell>
        <mxCell id="LCghE6-hminLdU0i90bZ-116" value="Id" style="ellipse;whiteSpace=wrap;html=1;align=center;fontStyle=4;" parent="1" vertex="1">
          <mxGeometry x="364" y="894" width="100" height="40" as="geometry" />
        </mxCell>
        <mxCell id="LCghE6-hminLdU0i90bZ-117" value="Id" style="ellipse;whiteSpace=wrap;html=1;align=center;fontStyle=4;" parent="1" vertex="1">
          <mxGeometry x="411" y="564" width="100" height="40" as="geometry" />
        </mxCell>
        <mxCell id="LCghE6-hminLdU0i90bZ-118" value="Id" style="ellipse;whiteSpace=wrap;html=1;align=center;fontStyle=4;" parent="1" vertex="1">
          <mxGeometry x="100" y="459" width="100" height="40" as="geometry" />
        </mxCell>
        <mxCell id="LCghE6-hminLdU0i90bZ-119" value="" style="endArrow=none;html=1;rounded=0;entryX=0;entryY=0.75;entryDx=0;entryDy=0;exitX=1;exitY=0;exitDx=0;exitDy=0;" parent="1" source="LCghE6-hminLdU0i90bZ-118" target="LCghE6-hminLdU0i90bZ-3" edge="1">
          <mxGeometry relative="1" as="geometry">
            <mxPoint x="220" y="470" as="sourcePoint" />
            <mxPoint x="380" y="470" as="targetPoint" />
          </mxGeometry>
        </mxCell>
        <mxCell id="N3sGzedyJR3lp-CHt0vu-3" value="Должность" style="ellipse;whiteSpace=wrap;html=1;align=center;dashed=1;" parent="1" vertex="1">
          <mxGeometry x="371" y="480" width="100" height="40" as="geometry" />
        </mxCell>
        <mxCell id="N3sGzedyJR3lp-CHt0vu-4" value="" style="endArrow=none;html=1;rounded=0;exitX=1;exitY=0.75;exitDx=0;exitDy=0;entryX=0;entryY=0;entryDx=0;entryDy=0;" parent="1" source="LCghE6-hminLdU0i90bZ-3" target="N3sGzedyJR3lp-CHt0vu-3" edge="1">
          <mxGeometry relative="1" as="geometry">
            <mxPoint x="420" y="590" as="sourcePoint" />
            <mxPoint x="580" y="590" as="targetPoint" />
          </mxGeometry>
        </mxCell>
        <mxCell id="N3sGzedyJR3lp-CHt0vu-5" value="Имя" style="ellipse;whiteSpace=wrap;html=1;align=center;" parent="1" vertex="1">
          <mxGeometry x="70" y="294" width="100" height="40" as="geometry" />
        </mxCell>
        <mxCell id="N3sGzedyJR3lp-CHt0vu-6" value="Фамилия" style="ellipse;whiteSpace=wrap;html=1;align=center;" parent="1" vertex="1">
          <mxGeometry x="141" y="234" width="100" height="40" as="geometry" />
        </mxCell>
        <mxCell id="N3sGzedyJR3lp-CHt0vu-8" value="Отчество" style="ellipse;whiteSpace=wrap;html=1;align=center;dashed=1;" parent="1" vertex="1">
          <mxGeometry x="251" y="210" width="100" height="40" as="geometry" />
        </mxCell>
        <mxCell id="N3sGzedyJR3lp-CHt0vu-9" value="Образование" style="ellipse;whiteSpace=wrap;html=1;align=center;dashed=1;" parent="1" vertex="1">
          <mxGeometry x="11" y="409" width="100" height="40" as="geometry" />
        </mxCell>
        <mxCell id="N3sGzedyJR3lp-CHt0vu-10" value="" style="endArrow=none;html=1;rounded=0;exitX=1;exitY=1;exitDx=0;exitDy=0;entryX=0.5;entryY=0;entryDx=0;entryDy=0;" parent="1" source="N3sGzedyJR3lp-CHt0vu-5" target="LCghE6-hminLdU0i90bZ-3" edge="1">
          <mxGeometry relative="1" as="geometry">
            <mxPoint x="430" y="590" as="sourcePoint" />
            <mxPoint x="590" y="590" as="targetPoint" />
          </mxGeometry>
        </mxCell>
        <mxCell id="N3sGzedyJR3lp-CHt0vu-11" value="" style="endArrow=none;html=1;rounded=0;exitX=0.5;exitY=1;exitDx=0;exitDy=0;entryX=0.5;entryY=0;entryDx=0;entryDy=0;" parent="1" source="N3sGzedyJR3lp-CHt0vu-8" target="LCghE6-hminLdU0i90bZ-3" edge="1">
          <mxGeometry relative="1" as="geometry">
            <mxPoint x="430" y="590" as="sourcePoint" />
            <mxPoint x="590" y="590" as="targetPoint" />
          </mxGeometry>
        </mxCell>
        <mxCell id="N3sGzedyJR3lp-CHt0vu-12" value="" style="endArrow=none;html=1;rounded=0;exitX=0.5;exitY=1;exitDx=0;exitDy=0;entryX=0.5;entryY=0;entryDx=0;entryDy=0;" parent="1" source="N3sGzedyJR3lp-CHt0vu-6" target="LCghE6-hminLdU0i90bZ-3" edge="1">
          <mxGeometry relative="1" as="geometry">
            <mxPoint x="430" y="590" as="sourcePoint" />
            <mxPoint x="590" y="590" as="targetPoint" />
          </mxGeometry>
        </mxCell>
        <mxCell id="N3sGzedyJR3lp-CHt0vu-14" value="Образование" style="ellipse;whiteSpace=wrap;html=1;align=center;dashed=1;" parent="1" vertex="1">
          <mxGeometry x="158" y="564" width="100" height="40" as="geometry" />
        </mxCell>
        <mxCell id="N3sGzedyJR3lp-CHt0vu-15" value="Мин Возраст" style="ellipse;whiteSpace=wrap;html=1;align=center;dashed=1;" parent="1" vertex="1">
          <mxGeometry x="20" y="744" width="100" height="40" as="geometry" />
        </mxCell>
        <mxCell id="N3sGzedyJR3lp-CHt0vu-16" value="Макс Возраст" style="ellipse;whiteSpace=wrap;html=1;align=center;dashed=1;" parent="1" vertex="1">
          <mxGeometry x="11" y="814" width="100" height="40" as="geometry" />
        </mxCell>
        <mxCell id="N3sGzedyJR3lp-CHt0vu-18" value="Опыт Работы" style="ellipse;whiteSpace=wrap;html=1;align=center;" parent="1" vertex="1">
          <mxGeometry x="130" y="1010" width="100" height="40" as="geometry" />
        </mxCell>
        <mxCell id="N3sGzedyJR3lp-CHt0vu-19" value="Частота выплат" style="ellipse;whiteSpace=wrap;html=1;align=center;" parent="1" vertex="1">
          <mxGeometry x="60" y="960" width="100" height="40" as="geometry" />
        </mxCell>
        <mxCell id="N3sGzedyJR3lp-CHt0vu-20" value="" style="endArrow=none;html=1;rounded=0;exitX=0.5;exitY=0;exitDx=0;exitDy=0;entryX=0.25;entryY=1;entryDx=0;entryDy=0;" parent="1" source="N3sGzedyJR3lp-CHt0vu-19" target="LCghE6-hminLdU0i90bZ-27" edge="1">
          <mxGeometry relative="1" as="geometry">
            <mxPoint x="290" y="790" as="sourcePoint" />
            <mxPoint x="450" y="790" as="targetPoint" />
          </mxGeometry>
        </mxCell>
        <mxCell id="N3sGzedyJR3lp-CHt0vu-22" value="Тип занятости" style="ellipse;whiteSpace=wrap;html=1;align=center;" parent="1" vertex="1">
          <mxGeometry x="211" y="960" width="100" height="40" as="geometry" />
        </mxCell>
        <mxCell id="N3sGzedyJR3lp-CHt0vu-23" value="" style="endArrow=none;html=1;rounded=0;exitX=0.25;exitY=1;exitDx=0;exitDy=0;entryX=0.5;entryY=0;entryDx=0;entryDy=0;" parent="1" source="LCghE6-hminLdU0i90bZ-27" target="N3sGzedyJR3lp-CHt0vu-22" edge="1">
          <mxGeometry relative="1" as="geometry">
            <mxPoint x="290" y="790" as="sourcePoint" />
            <mxPoint x="450" y="790" as="targetPoint" />
          </mxGeometry>
        </mxCell>
        <mxCell id="N3sGzedyJR3lp-CHt0vu-24" style="edgeStyle=orthogonalEdgeStyle;rounded=0;orthogonalLoop=1;jettySize=auto;html=1;exitX=0.5;exitY=1;exitDx=0;exitDy=0;" parent="1" source="N3sGzedyJR3lp-CHt0vu-19" target="N3sGzedyJR3lp-CHt0vu-19" edge="1">
          <mxGeometry relative="1" as="geometry" />
        </mxCell>
        <mxCell id="N3sGzedyJR3lp-CHt0vu-25" value="Формат Работы" style="ellipse;whiteSpace=wrap;html=1;align=center;" parent="1" vertex="1">
          <mxGeometry x="300" y="1030" width="100" height="40" as="geometry" />
        </mxCell>
        <mxCell id="N3sGzedyJR3lp-CHt0vu-26" value="" style="endArrow=none;html=1;rounded=0;entryX=0.5;entryY=0;entryDx=0;entryDy=0;exitX=0.25;exitY=1;exitDx=0;exitDy=0;" parent="1" source="LCghE6-hminLdU0i90bZ-27" target="N3sGzedyJR3lp-CHt0vu-25" edge="1">
          <mxGeometry relative="1" as="geometry">
            <mxPoint x="420" y="890" as="sourcePoint" />
            <mxPoint x="580" y="890" as="targetPoint" />
          </mxGeometry>
        </mxCell>
        <mxCell id="N3sGzedyJR3lp-CHt0vu-27" value="Последний рабочий день" style="ellipse;whiteSpace=wrap;html=1;align=center;dashed=1;" parent="1" vertex="1">
          <mxGeometry x="704.5" y="334" width="100" height="40" as="geometry" />
        </mxCell>
        <mxCell id="FgDvqK0AXRK7S9zn8mNW-1" value="Работал" style="shape=rhombus;perimeter=rhombusPerimeter;whiteSpace=wrap;html=1;align=center;" vertex="1" parent="1">
          <mxGeometry x="620" y="459" width="120" height="60" as="geometry" />
        </mxCell>
        <mxCell id="FgDvqK0AXRK7S9zn8mNW-2" value="" style="endArrow=none;html=1;rounded=0;dashed=1;dashPattern=1 2;exitX=0.5;exitY=1;exitDx=0;exitDy=0;entryX=1;entryY=0.25;entryDx=0;entryDy=0;" edge="1" parent="1" source="FgDvqK0AXRK7S9zn8mNW-1" target="LCghE6-hminLdU0i90bZ-20">
          <mxGeometry relative="1" as="geometry">
            <mxPoint x="644.5" y="644" as="sourcePoint" />
            <mxPoint x="804.5" y="644" as="targetPoint" />
            <Array as="points">
              <mxPoint x="710" y="620" />
            </Array>
          </mxGeometry>
        </mxCell>
        <mxCell id="FgDvqK0AXRK7S9zn8mNW-3" value="N" style="resizable=0;html=1;whiteSpace=wrap;align=right;verticalAlign=bottom;" connectable="0" vertex="1" parent="FgDvqK0AXRK7S9zn8mNW-2">
          <mxGeometry x="1" relative="1" as="geometry">
            <mxPoint x="20" y="-10" as="offset" />
          </mxGeometry>
        </mxCell>
        <mxCell id="FgDvqK0AXRK7S9zn8mNW-4" value="" style="endArrow=none;html=1;rounded=0;dashed=1;dashPattern=1 2;exitX=0.212;exitY=0.3;exitDx=0;exitDy=0;entryX=1;entryY=0.5;entryDx=0;entryDy=0;exitPerimeter=0;" edge="1" parent="1" source="FgDvqK0AXRK7S9zn8mNW-1" target="LCghE6-hminLdU0i90bZ-3">
          <mxGeometry relative="1" as="geometry">
            <mxPoint x="680" y="480" as="sourcePoint" />
            <mxPoint x="371" y="435" as="targetPoint" />
          </mxGeometry>
        </mxCell>
        <mxCell id="FgDvqK0AXRK7S9zn8mNW-5" value="M" style="resizable=0;html=1;whiteSpace=wrap;align=right;verticalAlign=bottom;" connectable="0" vertex="1" parent="FgDvqK0AXRK7S9zn8mNW-4">
          <mxGeometry x="1" relative="1" as="geometry">
            <mxPoint x="19" as="offset" />
          </mxGeometry>
        </mxCell>
      </root>
    </mxGraphModel>
  </diagram>
</mxfile>
